<?xml version="1.0" encoding="utf-8"?>
<!-- Generator: Adobe Illustrator 19.1.0, SVG Export Plug-In . SVG Version: 6.00 Build 0)  -->
<svg version="1.2" baseProfile="tiny" id="Layer_1" xmlns="http://www.w3.org/2000/svg" xmlns:xlink="http://www.w3.org/1999/xlink"
	 x="0px" y="0px" viewBox="0 0 200 43.1" xml:space="preserve">
<g>
	<g>
		<g>
			<path fill="#FFFFFF" d="M50.6,13c5.6,0.4,7.5,2.9,7.5,5.3c0,3.8-3.1,5.8-8.2,5.8c-0.9,0-2.8-0.1-5.3-0.1c-1.8,0-3.6,0-4.6,0.1
				v-0.6c1.9-0.1,2.2-0.4,2.2-2.6V6.1c0-2.2-0.3-2.5-2.2-2.6V3c1,0.1,2.9,0.1,4.5,0.1c1.9,0,3.9-0.1,4.7-0.1c4.9,0,7.4,1.9,7.4,4.7
				C56.6,9.8,54.8,12.2,50.6,13L50.6,13z M47,6.1v6.7h1.3c2.8,0,3.5-2.3,3.5-4.9c0-2.9-0.8-4.4-2.9-4.4C47.3,3.6,47,4.1,47,6.1z
				 M53.2,18.2c0-3-1.4-4.8-4.9-4.8H47v7.5c0,2.1,0.3,2.5,2.1,2.5C51.9,23.4,53.2,21.5,53.2,18.2z"/>
		</g>
		<g>
			<path fill="#FFFFFF" d="M71.2,9.6c0.9,0.9,1.1,2.1,1.1,4.2v8.1c0,1,0.2,1.3,0.6,1.3c0.4,0,0.8-0.2,1.1-0.5l0.3,0.5
				c-0.9,0.7-1.9,1.1-3.4,1.1c-2.2,0-2.9-1.1-2.9-2.4c-1,1.7-2.7,2.4-4.4,2.4c-2.2,0-3.8-1.2-3.8-3.4c0-2.2,1.4-3.4,4.2-4.4
				c2.2-0.8,3.9-1.4,3.9-2.7v-2.3c0-1.6-0.7-2.7-2.4-2.7c-0.7,0-1.6,0.2-2.1,0.7c1.1,0.4,1.8,1.1,1.8,2.3c0,1.2-1,2.1-2.4,2.1
				c-1.3,0-2.1-1-2.1-2.3c0-1.1,0.7-1.9,1.7-2.5c1.1-0.6,2.5-1,4.5-1C68.7,8.3,70.2,8.6,71.2,9.6z M67.9,15.1
				c-0.3,0.5-0.8,0.8-1.8,1.5c-1,0.8-2,1.7-2,3.5c0,1.6,0.8,2.3,1.9,2.3c0.7,0,1.4-0.3,2-1.2V15.1z"/>
		</g>
		<g>
			<path fill="#FFFFFF" d="M88.1,11c0,1.5-0.9,2.5-2.3,2.5s-2.2-0.8-2.2-1.9c0-1.1,0.6-1.8,1.3-2.3c-0.1,0-0.2-0.1-0.4-0.1
				c-0.1,0-0.3,0-0.4,0.1c-1.6,0.3-2.7,2.2-2.7,3.8V21c0,1.9,0.9,2.4,2.8,2.4v0.6c-0.9,0-2.9-0.1-4.7-0.1c-1.6,0-3.4,0.1-4.3,0.1
				v-0.6c1.4,0,1.9-0.5,1.9-2.1v-9.4c0-1.8-0.5-2.6-1.9-2.6V8.7c0.6,0.1,1.3,0.1,1.8,0.1c1.7,0,3.1-0.1,4.4-0.4v2.8
				c0.7-1.6,2.2-2.9,4-2.9C87.3,8.3,88.1,9.7,88.1,11z"/>
		</g>
		<g>
			<path fill="#FFFFFF" d="M103.4,21.9c0.5,0.7,0.9,1.3,1.6,1.6v0.6c-0.6,0-1.9-0.1-3.1-0.1c-1.5,0-3.1,0.1-3.9,0.1v-0.6
				c0.6,0,0.9-0.2,0.9-0.6c0-0.1-0.1-0.3-0.1-0.5l-3-5.3c-0.4-0.7-0.8-0.9-1.5-0.9v5.1c0,1.7,0.5,2.1,1.8,2.1v0.6
				c-0.7,0-2.4-0.1-3.9-0.1c-1.6,0-3.3,0.1-4.1,0.1v-0.6c1.4,0,1.9-0.5,1.9-2.1v-17c0-1.8-0.5-2.6-1.9-2.6V1.1
				c0.6,0.1,1.3,0.1,1.8,0.1c1.7,0,3.1-0.1,4.4-0.4v14.8c0.8-0.1,1.3-0.2,1.8-0.7l2.3-2.2c0.7-0.7,1-1.3,1-1.8c0-0.9-1-1.5-2.3-1.6
				V8.7c1.1,0.1,2.6,0.1,3.5,0.1c1.1,0,2.8,0,3.5-0.1v0.6c-1.3,0.3-2.5,1.1-3.7,2.3l-1.9,2L103.4,21.9z"/>
		</g>
	</g>
	<g>
		<g>
			<path fill="#FFFFFF" d="M45.8,40.3c0,0-0.1,0-0.2,0c-0.1,0-0.1,0-0.2,0c-0.3,0-0.6-0.1-0.7-0.3c-0.1-0.2-0.2-0.5-0.2-1
				c-0.3,0.4-0.7,0.8-1.2,1c-0.5,0.2-1.1,0.4-1.7,0.4c-0.6,0-1.2-0.2-1.5-0.6c-0.4-0.4-0.6-0.9-0.6-1.5c0-0.6,0.2-1.1,0.6-1.5
				c0.4-0.3,1.2-0.6,2.2-0.7c0.2,0,0.4-0.1,0.7-0.1c0.9-0.1,1.4-0.4,1.4-0.7l0-0.6c0-0.5-0.2-0.9-0.5-1.1c-0.3-0.3-0.8-0.4-1.4-0.4
				c-0.7,0-1.3,0.2-1.7,0.5c-0.4,0.3-0.6,0.7-0.7,1.3l-0.4,0c0-0.7,0.3-1.2,0.8-1.6c0.5-0.4,1.1-0.6,2-0.6c0.5,0,0.9,0.1,1.3,0.2
				c0.4,0.1,0.6,0.3,0.8,0.6c0.1,0.2,0.2,0.3,0.2,0.5c0,0.2,0.1,0.5,0.1,0.9l0,0.3l0,3.2c0,0.5,0,0.8,0.1,1c0.1,0.2,0.3,0.2,0.5,0.2
				c0,0,0.1,0,0.2,0c0,0,0,0,0,0L45.8,40.3z M44.5,36.2c-0.1,0.2-0.6,0.3-1.5,0.4c-0.1,0-0.3,0-0.3,0c-1,0.1-1.7,0.3-2.1,0.6
				c-0.4,0.3-0.6,0.7-0.6,1.2c0,0.5,0.2,0.9,0.5,1.2c0.3,0.3,0.8,0.4,1.3,0.4c0.4,0,0.8-0.1,1.1-0.2c0.4-0.1,0.7-0.3,0.9-0.5
				c0.3-0.2,0.5-0.5,0.6-0.8c0.1-0.3,0.2-0.7,0.2-1.3L44.5,36.2z"/>
		</g>
		<g>
			<path fill="#FFFFFF" d="M54.3,30.4l0,9.9l-0.4,0l0-1.6c-0.2,0.6-0.6,1-1,1.3c-0.5,0.3-1,0.5-1.7,0.5c-1,0-1.8-0.3-2.3-1
				c-0.6-0.7-0.8-1.6-0.9-2.8c0-1.2,0.3-2.1,0.8-2.8c0.6-0.7,1.3-1,2.3-1c0.6,0,1.2,0.1,1.7,0.4c0.5,0.3,0.8,0.7,1,1.3l0-4.3
				L54.3,30.4z M53.9,36.7c0-1-0.2-1.9-0.7-2.5c-0.5-0.6-1.1-0.9-2-0.9c-0.8,0-1.5,0.3-2,0.9c-0.5,0.6-0.7,1.4-0.7,2.5
				c0,1,0.2,1.9,0.7,2.5c0.5,0.6,1.2,0.9,2,0.9c0.8,0,1.5-0.3,2-0.9C53.6,38.6,53.9,37.8,53.9,36.7z"/>
		</g>
		<g>
			<path fill="#FFFFFF" d="M59.4,40.3l-2.7-7.2l0.5,0l2.5,6.7l2.5-6.7l0.5,0l-2.8,7.2L59.4,40.3z"/>
		</g>
		<g>
			<path fill="#FFFFFF" d="M64.8,36.7c0-1.2,0.3-2.1,0.8-2.8c0.6-0.7,1.3-1,2.3-1c1,0,1.7,0.3,2.3,1c0.6,0.7,0.9,1.6,0.9,2.8
				c0,1.2-0.3,2.1-0.8,2.8c-0.6,0.7-1.3,1-2.3,1c-1,0-1.7-0.3-2.3-1C65.1,38.8,64.8,37.9,64.8,36.7z M65.2,36.7c0,1,0.2,1.9,0.7,2.5
				c0.5,0.6,1.1,0.9,2,0.9c0.8,0,1.5-0.3,2-0.9c0.5-0.6,0.7-1.4,0.7-2.5c0-1-0.2-1.9-0.7-2.5c-0.5-0.6-1.2-0.9-2-0.9
				c-0.8,0-1.5,0.3-2,0.9C65.5,34.8,65.2,35.7,65.2,36.7z"/>
		</g>
		<g>
			<path fill="#FFFFFF" d="M79.6,38.7c-0.2,0.6-0.6,1-1.1,1.3c-0.5,0.3-1,0.5-1.7,0.5c-1,0-1.7-0.3-2.3-1c-0.6-0.7-0.8-1.6-0.8-2.8
				c0-1.2,0.3-2.1,0.8-2.8c0.6-0.7,1.3-1,2.3-1c0.7,0,1.2,0.2,1.7,0.5c0.5,0.3,0.8,0.7,1,1.3l0-1.6l0.4,0l0,6.8c0,0.5,0,1-0.1,1.2
				c-0.1,0.3-0.2,0.5-0.3,0.8c-0.3,0.4-0.7,0.7-1.1,0.9c-0.5,0.2-1.1,0.3-1.7,0.3c-0.8,0-1.5-0.2-1.9-0.6C74.3,42.2,74,41.7,74,41
				l0.4,0c0,0.5,0.3,1,0.7,1.3c0.4,0.3,1,0.5,1.7,0.5c0.6,0,1.1-0.1,1.5-0.3c0.4-0.2,0.7-0.5,1-0.9c0.1-0.2,0.2-0.4,0.2-0.7
				c0-0.3,0.1-0.7,0.1-1.4L79.6,38.7z M79.6,36.7c0-1-0.2-1.9-0.7-2.5c-0.5-0.6-1.1-0.9-2-0.9c-0.8,0-1.5,0.3-2,0.9
				c-0.5,0.6-0.7,1.4-0.7,2.5c0,1,0.2,1.9,0.7,2.5c0.5,0.6,1.2,0.9,2,0.9c0.8,0,1.5-0.3,2-0.9C79.4,38.6,79.6,37.7,79.6,36.7z"/>
		</g>
		<g>
			<path fill="#FFFFFF" d="M89.2,40.3c0,0-0.1,0-0.2,0c-0.1,0-0.1,0-0.2,0c-0.3,0-0.6-0.1-0.7-0.3c-0.1-0.2-0.2-0.5-0.2-1
				c-0.3,0.4-0.7,0.8-1.2,1c-0.5,0.2-1.1,0.4-1.7,0.4c-0.6,0-1.2-0.2-1.5-0.6c-0.4-0.4-0.6-0.9-0.6-1.5c0-0.6,0.2-1.1,0.6-1.5
				c0.4-0.3,1.2-0.6,2.2-0.7c0.2,0,0.4-0.1,0.7-0.1c0.9-0.1,1.4-0.4,1.4-0.7l0-0.6c0-0.5-0.2-0.9-0.5-1.1c-0.3-0.3-0.8-0.4-1.4-0.4
				c-0.7,0-1.3,0.2-1.7,0.5c-0.4,0.3-0.6,0.7-0.7,1.3l-0.4,0c0-0.7,0.3-1.2,0.8-1.6c0.5-0.4,1.1-0.6,2-0.6c0.5,0,0.9,0.1,1.3,0.2
				c0.4,0.1,0.6,0.3,0.8,0.6c0.1,0.2,0.2,0.3,0.2,0.5c0,0.2,0.1,0.5,0.1,0.9l0,0.3l0,3.2c0,0.5,0,0.8,0.1,1c0.1,0.2,0.3,0.2,0.5,0.2
				c0,0,0.1,0,0.2,0c0,0,0,0,0,0L89.2,40.3z M87.9,36.1c-0.1,0.2-0.6,0.3-1.5,0.4c-0.1,0-0.3,0-0.3,0c-1,0.1-1.7,0.3-2.1,0.6
				c-0.4,0.3-0.6,0.7-0.6,1.2c0,0.5,0.2,0.9,0.5,1.2c0.3,0.3,0.8,0.4,1.3,0.4c0.4,0,0.8-0.1,1.1-0.2c0.4-0.1,0.7-0.3,0.9-0.5
				c0.3-0.2,0.5-0.5,0.6-0.8c0.1-0.3,0.2-0.7,0.2-1.3L87.9,36.1z"/>
		</g>
		<g>
			<path fill="#FFFFFF" d="M97.7,30.3l0,9.9l-0.4,0l0-1.6c-0.2,0.6-0.6,1-1,1.3c-0.5,0.3-1,0.5-1.7,0.5c-1,0-1.8-0.3-2.3-1
				c-0.6-0.7-0.8-1.6-0.9-2.8c0-1.2,0.3-2.1,0.8-2.8c0.6-0.7,1.3-1,2.3-1c0.6,0,1.2,0.1,1.7,0.5c0.5,0.3,0.8,0.7,1,1.3l0-4.3
				L97.7,30.3z M97.3,36.7c0-1-0.2-1.9-0.7-2.5c-0.5-0.6-1.1-0.9-2-0.9c-0.8,0-1.5,0.3-2,0.9c-0.5,0.6-0.7,1.4-0.7,2.5
				c0,1,0.2,1.9,0.7,2.5c0.5,0.6,1.2,0.9,2,0.9c0.8,0,1.5-0.3,2-0.9C97,38.5,97.3,37.7,97.3,36.7z"/>
		</g>
		<g>
			<path fill="#FFFFFF" d="M100.6,36.7c0-1.2,0.3-2.1,0.8-2.8c0.6-0.7,1.3-1,2.3-1c1,0,1.7,0.3,2.3,1c0.6,0.7,0.9,1.6,0.9,2.8
				c0,1.2-0.3,2.1-0.8,2.8c-0.6,0.7-1.3,1-2.3,1c-1,0-1.7-0.3-2.3-1C100.9,38.8,100.6,37.8,100.6,36.7z M101.1,36.7
				c0,1,0.2,1.9,0.7,2.5c0.5,0.6,1.1,0.9,2,0.9c0.8,0,1.5-0.3,2-0.9c0.5-0.6,0.7-1.4,0.7-2.5c0-1-0.2-1.9-0.7-2.5
				c-0.5-0.6-1.2-0.9-2-0.9c-0.8,0-1.5,0.3-2,0.9C101.3,34.8,101.1,35.6,101.1,36.7z"/>
		</g>
		<g>
			<path fill="#FFFFFF" d="M110.1,38.1c0.1,0.6,0.4,1.1,0.8,1.4c0.4,0.3,0.9,0.5,1.5,0.5c0.6,0,1.2-0.2,1.5-0.4
				c0.4-0.3,0.6-0.7,0.6-1.2c0-0.4-0.1-0.6-0.3-0.9c-0.2-0.2-0.6-0.4-1.1-0.5c-0.1,0-0.2-0.1-0.4-0.1c-1.2-0.3-1.9-0.6-2.3-0.9
				c-0.2-0.1-0.3-0.3-0.4-0.5c-0.1-0.2-0.2-0.4-0.2-0.7c0-0.6,0.2-1,0.7-1.4c0.5-0.4,1-0.5,1.8-0.5c0.7,0,1.2,0.2,1.7,0.5
				c0.4,0.4,0.7,0.9,0.7,1.5l-0.4,0c-0.1-0.5-0.3-1-0.6-1.2c-0.4-0.3-0.8-0.4-1.4-0.4c-0.6,0-1,0.1-1.4,0.4c-0.4,0.3-0.5,0.6-0.5,1
				c0,0.7,0.7,1.2,2.2,1.6c0.1,0,0.1,0,0.1,0c0.9,0.2,1.5,0.5,1.8,0.8c0.3,0.3,0.5,0.7,0.5,1.2c0,0.6-0.2,1.1-0.7,1.5
				c-0.5,0.4-1.1,0.6-1.8,0.6c-0.8,0-1.4-0.2-1.9-0.6c-0.5-0.4-0.8-1-0.8-1.7L110.1,38.1z"/>
		</g>
		<g>
			<path fill="#FFFFFF" d="M128.8,40.2c0,0-0.1,0-0.2,0c-0.1,0-0.1,0-0.2,0c-0.3,0-0.6-0.1-0.7-0.3c-0.1-0.2-0.2-0.5-0.2-1
				c-0.3,0.4-0.7,0.8-1.2,1c-0.5,0.2-1.1,0.4-1.7,0.4c-0.6,0-1.2-0.2-1.5-0.6c-0.4-0.4-0.6-0.9-0.6-1.5c0-0.6,0.2-1.1,0.6-1.5
				c0.4-0.3,1.2-0.6,2.2-0.7c0.2,0,0.4-0.1,0.7-0.1c0.9-0.1,1.4-0.4,1.4-0.7l0-0.6c0-0.5-0.2-0.9-0.5-1.1c-0.3-0.3-0.8-0.4-1.4-0.4
				c-0.7,0-1.3,0.2-1.7,0.5c-0.4,0.3-0.6,0.7-0.7,1.3l-0.4,0c0-0.7,0.3-1.2,0.8-1.6c0.5-0.4,1.1-0.6,2-0.6c0.5,0,0.9,0.1,1.3,0.2
				c0.4,0.1,0.6,0.3,0.8,0.6c0.1,0.2,0.2,0.3,0.2,0.5c0,0.2,0.1,0.5,0.1,0.9l0,0.3l0,3.2c0,0.5,0,0.8,0.1,1c0.1,0.2,0.3,0.2,0.5,0.2
				c0,0,0.1,0,0.2,0c0,0,0,0,0,0L128.8,40.2z M127.4,36.1c-0.1,0.2-0.6,0.3-1.5,0.4c-0.1,0-0.3,0-0.3,0c-1,0.1-1.7,0.3-2.1,0.6
				s-0.6,0.7-0.6,1.2c0,0.5,0.2,0.9,0.5,1.2c0.3,0.3,0.8,0.4,1.3,0.4c0.4,0,0.8-0.1,1.1-0.2c0.4-0.1,0.7-0.3,0.9-0.5
				c0.3-0.2,0.5-0.5,0.6-0.8c0.1-0.3,0.2-0.7,0.2-1.3L127.4,36.1z"/>
		</g>
		<g>
			<path fill="#FFFFFF" d="M131.5,38.1c0.1,0.6,0.4,1.1,0.8,1.4c0.4,0.3,0.9,0.5,1.5,0.5c0.6,0,1.2-0.1,1.5-0.4
				c0.4-0.3,0.6-0.7,0.6-1.2c0-0.4-0.1-0.6-0.3-0.9c-0.2-0.2-0.6-0.4-1.1-0.5c-0.1,0-0.2-0.1-0.4-0.1c-1.2-0.3-1.9-0.6-2.3-0.9
				c-0.2-0.1-0.3-0.3-0.4-0.5c-0.1-0.2-0.2-0.4-0.2-0.7c0-0.6,0.2-1,0.7-1.4c0.5-0.4,1-0.5,1.8-0.5c0.7,0,1.2,0.2,1.7,0.5
				c0.4,0.4,0.7,0.9,0.7,1.5l-0.4,0c-0.1-0.5-0.3-1-0.6-1.2c-0.4-0.3-0.8-0.4-1.4-0.4c-0.6,0-1,0.1-1.4,0.4c-0.4,0.3-0.5,0.6-0.5,1
				c0,0.7,0.7,1.2,2.2,1.6c0.1,0,0.1,0,0.1,0c0.9,0.2,1.5,0.5,1.8,0.8c0.3,0.3,0.5,0.7,0.5,1.2c0,0.6-0.2,1.1-0.7,1.5
				c-0.5,0.4-1.1,0.6-1.8,0.6c-0.8,0-1.4-0.2-1.9-0.6c-0.5-0.4-0.8-1-0.8-1.7L131.5,38.1z"/>
		</g>
		<g>
			<path fill="#FFFFFF" d="M139.5,38.1c0.1,0.6,0.4,1.1,0.8,1.4c0.4,0.3,0.9,0.5,1.5,0.5c0.6,0,1.2-0.1,1.5-0.4
				c0.4-0.3,0.6-0.7,0.6-1.2c0-0.4-0.1-0.6-0.3-0.9c-0.2-0.2-0.6-0.4-1.1-0.5c-0.1,0-0.2-0.1-0.4-0.1c-1.2-0.3-1.9-0.6-2.3-0.9
				c-0.2-0.1-0.3-0.3-0.4-0.5c-0.1-0.2-0.2-0.4-0.2-0.7c0-0.6,0.2-1,0.7-1.4c0.5-0.4,1-0.5,1.8-0.5c0.7,0,1.2,0.2,1.7,0.5
				c0.4,0.4,0.7,0.9,0.7,1.5l-0.4,0c-0.1-0.5-0.3-1-0.6-1.2c-0.4-0.3-0.8-0.4-1.4-0.4c-0.6,0-1,0.1-1.4,0.4c-0.4,0.3-0.5,0.6-0.5,1
				c0,0.7,0.7,1.2,2.2,1.6c0.1,0,0.1,0,0.1,0c0.9,0.2,1.5,0.5,1.8,0.8c0.3,0.3,0.5,0.7,0.5,1.2c0,0.6-0.2,1.1-0.7,1.5
				c-0.5,0.4-1.1,0.6-1.8,0.6c-0.8,0-1.4-0.2-1.9-0.6c-0.5-0.4-0.8-1-0.8-1.7L139.5,38.1z"/>
		</g>
		<g>
			<path fill="#FFFFFF" d="M147,36.6c0-1.2,0.3-2.1,0.8-2.8c0.6-0.7,1.3-1,2.3-1c1,0,1.7,0.3,2.3,1c0.6,0.7,0.9,1.6,0.9,2.8
				c0,1.2-0.3,2.1-0.8,2.8c-0.6,0.7-1.3,1-2.3,1c-1,0-1.7-0.3-2.3-1C147.3,38.7,147,37.8,147,36.6z M147.4,36.6c0,1,0.2,1.9,0.7,2.5
				c0.5,0.6,1.1,0.9,2,0.9c0.8,0,1.5-0.3,2-0.9c0.5-0.6,0.7-1.4,0.7-2.5c0-1-0.2-1.9-0.7-2.5c-0.5-0.6-1.2-0.9-2-0.9
				c-0.8,0-1.5,0.3-2,0.9C147.7,34.7,147.4,35.6,147.4,36.6z"/>
		</g>
		<g>
			<path fill="#FFFFFF" d="M161.9,37.8c-0.1,0.8-0.4,1.4-0.9,1.8c-0.5,0.5-1.2,0.7-1.9,0.7c-0.9,0-1.7-0.3-2.3-1
				c-0.6-0.7-0.8-1.6-0.8-2.7c0-1.2,0.3-2.1,0.8-2.8c0.6-0.7,1.3-1,2.3-1c0.8,0,1.4,0.2,1.9,0.6c0.5,0.4,0.8,0.9,0.9,1.7l-0.4,0
				c-0.1-0.6-0.4-1-0.8-1.4c-0.4-0.3-0.9-0.5-1.5-0.5c-0.8,0-1.5,0.3-2,0.9c-0.5,0.6-0.7,1.4-0.7,2.5c0,1,0.2,1.9,0.7,2.5
				c0.5,0.6,1.1,0.9,2,0.9c0.6,0,1.2-0.2,1.6-0.6c0.4-0.4,0.7-0.9,0.8-1.5L161.9,37.8z"/>
		</g>
		<g>
			<path fill="#FFFFFF" d="M164.8,31.4l0-1.2l0.4,0l0,1.2L164.8,31.4z M164.9,40.1l0-7.2l0.4,0l0,7.2L164.9,40.1z"/>
		</g>
		<g>
			<path fill="#FFFFFF" d="M174.5,40.2c0,0-0.1,0-0.2,0c-0.1,0-0.1,0-0.2,0c-0.3,0-0.6-0.1-0.7-0.3c-0.1-0.2-0.2-0.5-0.2-1
				c-0.3,0.4-0.7,0.8-1.2,1c-0.5,0.2-1.1,0.4-1.7,0.4c-0.6,0-1.2-0.2-1.5-0.6c-0.4-0.4-0.6-0.9-0.6-1.5c0-0.6,0.2-1.1,0.6-1.5
				c0.4-0.3,1.2-0.6,2.2-0.7c0.2,0,0.4-0.1,0.7-0.1c0.9-0.1,1.4-0.4,1.4-0.7l0-0.6c0-0.5-0.2-0.9-0.5-1.1c-0.3-0.3-0.8-0.4-1.4-0.4
				c-0.7,0-1.3,0.2-1.7,0.5c-0.4,0.3-0.6,0.7-0.7,1.3l-0.4,0c0-0.7,0.3-1.2,0.8-1.6c0.5-0.4,1.1-0.6,2-0.6c0.5,0,0.9,0.1,1.3,0.2
				c0.4,0.1,0.6,0.3,0.8,0.6c0.1,0.2,0.2,0.3,0.2,0.5c0,0.2,0.1,0.5,0.1,0.9l0,0.3l0,3.2c0,0.5,0,0.8,0.1,1c0.1,0.2,0.3,0.2,0.5,0.2
				c0,0,0.1,0,0.2,0c0,0,0,0,0,0L174.5,40.2z M173.2,36c-0.1,0.2-0.6,0.3-1.5,0.4c-0.1,0-0.3,0-0.3,0c-1,0.1-1.7,0.3-2.1,0.6
				c-0.4,0.3-0.6,0.7-0.6,1.2c0,0.5,0.2,0.9,0.5,1.2c0.3,0.3,0.8,0.4,1.3,0.4c0.4,0,0.8-0.1,1.1-0.2c0.4-0.1,0.7-0.3,0.9-0.5
				c0.3-0.2,0.5-0.5,0.6-0.8c0.1-0.3,0.2-0.7,0.2-1.3L173.2,36z"/>
		</g>
		<g>
			<path fill="#FFFFFF" d="M183,30.2l0,9.9l-0.4,0l0-1.6c-0.2,0.6-0.6,1-1,1.3c-0.5,0.3-1,0.5-1.7,0.5c-1,0-1.8-0.3-2.3-1
				c-0.6-0.7-0.8-1.6-0.9-2.8c0-1.2,0.3-2.1,0.8-2.8c0.6-0.7,1.3-1,2.3-1c0.6,0,1.2,0.1,1.7,0.5c0.5,0.3,0.8,0.7,1,1.3l0-4.3
				L183,30.2z M182.6,36.6c0-1-0.2-1.9-0.7-2.5c-0.5-0.6-1.1-0.9-2-0.9c-0.8,0-1.5,0.3-2,0.9c-0.5,0.6-0.7,1.4-0.7,2.5
				c0,1,0.2,1.9,0.7,2.5c0.5,0.6,1.2,0.9,2,0.9c0.8,0,1.5-0.3,2-0.9C182.3,38.4,182.6,37.6,182.6,36.6z"/>
		</g>
		<g>
			<path fill="#FFFFFF" d="M185.9,36.6c0-1.2,0.3-2.1,0.8-2.8c0.6-0.7,1.3-1,2.3-1c1,0,1.7,0.3,2.3,1c0.6,0.7,0.9,1.6,0.9,2.8
				c0,1.2-0.3,2.1-0.8,2.8c-0.6,0.7-1.3,1-2.3,1c-1,0-1.7-0.3-2.3-1C186.2,38.6,185.9,37.7,185.9,36.6z M186.4,36.6
				c0,1,0.2,1.9,0.7,2.5c0.5,0.6,1.1,0.9,2,0.9c0.8,0,1.5-0.3,2-0.9c0.5-0.6,0.7-1.4,0.7-2.5c0-1-0.2-1.9-0.7-2.5
				c-0.5-0.6-1.2-0.9-2-0.9c-0.8,0-1.5,0.3-2,0.9S186.4,35.5,186.4,36.6z"/>
		</g>
		<g>
			<path fill="#FFFFFF" d="M195.4,38c0.1,0.6,0.4,1.1,0.8,1.4c0.4,0.3,0.9,0.5,1.5,0.5c0.6,0,1.2-0.2,1.5-0.4
				c0.4-0.3,0.6-0.7,0.6-1.2c0-0.4-0.1-0.6-0.3-0.9c-0.2-0.2-0.6-0.4-1.1-0.5c-0.1,0-0.2-0.1-0.4-0.1c-1.2-0.3-1.9-0.6-2.3-0.9
				c-0.2-0.1-0.3-0.3-0.4-0.5c-0.1-0.2-0.2-0.4-0.2-0.7c0-0.6,0.2-1,0.7-1.4c0.5-0.4,1-0.5,1.8-0.5c0.7,0,1.2,0.2,1.7,0.5
				s0.7,0.9,0.7,1.5l-0.4,0c-0.1-0.5-0.3-1-0.6-1.2c-0.4-0.3-0.8-0.4-1.4-0.4c-0.6,0-1,0.1-1.4,0.4c-0.4,0.3-0.5,0.6-0.5,1
				c0,0.7,0.7,1.2,2.2,1.6c0.1,0,0.1,0,0.1,0c0.9,0.2,1.5,0.5,1.8,0.8c0.3,0.3,0.5,0.7,0.5,1.2c0,0.6-0.2,1.1-0.7,1.5
				c-0.5,0.4-1.1,0.6-1.8,0.6c-0.8,0-1.4-0.2-1.9-0.6c-0.5-0.4-0.8-1-0.8-1.7L195.4,38z"/>
		</g>
	</g>
	<g>
		<g>
			<path fill="#D9A522" d="M199.5,27.7H39.8c-0.1,0-0.1-0.1-0.1-0.1V27c0-0.1,0.1-0.1,0.1-0.1h159.7c0.1,0,0.1,0.1,0.1,0.1v0.5
				C199.6,27.6,199.6,27.7,199.5,27.7z"/>
		</g>
	</g>
	<g>
		<g>
			<g>
				<g>
					<path fill="#D9A522" d="M26.8,9.6v1.5c0,4.3-1.8,7-5.7,8.4v0.1c4.8,1.4,6.6,4.5,6.6,8.9v3.4c0,6.4-4.6,9.9-13.5,9.9h-14V0h13.4
						C22.9,0,26.8,3.2,26.8,9.6z M9.1,6v11h3.5c3.3,0,5.3-1.1,5.3-4.4v-2.3c0-3-1.4-4.3-4.5-4.3H9.1z M9.1,23v12.8h5.1
						c3,0,4.6-1,4.6-4.1v-3.6c0-3.9-1.7-5.1-5.7-5.1H9.1z"/>
				</g>
			</g>
		</g>
		<g>
			<g>
				<rect x="2.5" y="3.6" fill="#D9A522" width="17.4" height="32.5"/>
			</g>
		</g>
	</g>
	<g>
		<g>
			<g>
				<g>
					<path fill="#FFFFFF" d="M31.3,9.6v1.5c0,4.3-1.8,7-5.7,8.4v0.1c4.8,1.4,6.6,4.5,6.6,8.9v3.4c0,6.4-4.6,9.9-13.5,9.9h-14V0h13.4
						C27.3,0,31.3,3.2,31.3,9.6z M13.6,6v11h3.5c3.3,0,5.3-1.1,5.3-4.4v-2.3c0-3-1.4-4.3-4.5-4.3H13.6z M13.6,23v12.8h5.1
						c3,0,4.6-1,4.6-4.1v-3.6c0-3.9-1.7-5.1-5.7-5.1H13.6z"/>
				</g>
			</g>
		</g>
		<g>
			<g>
				<rect x="7" y="3.6" fill="#FFFFFF" width="17.4" height="32.5"/>
			</g>
		</g>
	</g>
	<g>
		<g>
			<path fill="#333333" d="M5,7c0.5-2.8,2.5-3.9,4.7-3.4C11,3.9,12,4.5,13.9,5.9c1.5,1,2.5,1.8,3.7,2c1.2,0.2,1.9-0.4,2.2-2l1.9,0.4
				c-0.5,3.1-2.6,3.9-4.6,3.4c-1.3-0.3-2.4-0.9-4.4-2.2c-1.4-1-2.4-1.8-3.6-2.1s-2,0.3-2.4,2L5,7z"/>
		</g>
	</g>
	<g>
		<g>
			<path fill="#333333" d="M17.7,31.5c4.8,0,8.7-3,8.7-6.6H9C9,28.5,12.9,31.5,17.7,31.5z"/>
		</g>
	</g>
	<g>
		<g>
			<path fill="#333333" d="M17.7,11.7l-5.8,12.6h-1.6l7.4-15.6l7.4,15.6h-1.6L17.7,11.7z"/>
		</g>
	</g>
	<g>
		<g>
			<rect x="17" y="10.6" fill="#333333" width="1.4" height="13.7"/>
		</g>
	</g>
	<g>
		<g>
			<rect x="4.7" y="0" fill="#333333" width="2.3" height="41.8"/>
		</g>
	</g>
	<g>
		<g>
			<rect x="4.7" y="2.4" fill="#333333" width="7.5" height="2.3"/>
		</g>
	</g>
	<g>
		<g>
			<path fill="#FFFFFF" d="M145.1,13c5.6,0.4,7.5,2.9,7.5,5.3c0,3.8-3.1,5.8-8.2,5.8c-0.9,0-2.8-0.1-5.3-0.1c-1.8,0-3.6,0-4.6,0.1
				v-0.6c1.9-0.1,2.2-0.4,2.2-2.6V6.1c0-2.2-0.3-2.5-2.2-2.6V3c1,0.1,2.9,0.1,4.5,0.1c1.9,0,3.9-0.1,4.7-0.1c4.9,0,7.4,1.9,7.4,4.7
				C151,9.8,149.2,12.2,145.1,13L145.1,13z M141.4,6.1v6.7h1.3c2.8,0,3.5-2.3,3.5-4.9c0-2.9-0.8-4.4-2.9-4.4
				C141.7,3.6,141.4,4.1,141.4,6.1z M147.6,18.2c0-3-1.4-4.8-4.9-4.8h-1.3v7.5c0,2.1,0.3,2.5,2.1,2.5
				C146.4,23.4,147.6,21.5,147.6,18.2z"/>
		</g>
		<g>
			<path fill="#FFFFFF" d="M165.6,9.6c0.9,0.9,1.1,2.1,1.1,4.2v8.1c0,1,0.2,1.3,0.6,1.3c0.4,0,0.8-0.2,1.1-0.5l0.3,0.5
				c-0.9,0.7-1.9,1.1-3.4,1.1c-2.2,0-2.9-1.1-2.9-2.4c-1,1.7-2.7,2.4-4.4,2.4c-2.2,0-3.8-1.2-3.8-3.4c0-2.2,1.4-3.4,4.2-4.4
				c2.2-0.8,3.9-1.4,3.9-2.7v-2.3c0-1.6-0.7-2.7-2.4-2.7c-0.7,0-1.6,0.2-2.1,0.7c1.1,0.4,1.8,1.1,1.8,2.3c0,1.2-1,2.1-2.4,2.1
				c-1.3,0-2.1-1-2.1-2.3c0-1.1,0.7-1.9,1.7-2.5c1.1-0.6,2.5-1,4.5-1C163.2,8.3,164.7,8.6,165.6,9.6z M162.4,15.1
				c-0.3,0.5-0.8,0.8-1.8,1.5c-1,0.8-2,1.7-2,3.5c0,1.6,0.8,2.3,1.9,2.3c0.7,0,1.4-0.3,2-1.2V15.1z"/>
		</g>
		<g>
			<path fill="#FFFFFF" d="M182.5,11c0,1.5-0.9,2.5-2.3,2.5c-1.4,0-2.2-0.8-2.2-1.9c0-1.1,0.6-1.8,1.3-2.3c-0.1,0-0.2-0.1-0.4-0.1
				c-0.1,0-0.3,0-0.4,0.1c-1.6,0.3-2.7,2.2-2.7,3.8V21c0,1.9,0.9,2.4,2.8,2.4v0.6c-0.9,0-2.9-0.1-4.7-0.1c-1.6,0-3.4,0.1-4.3,0.1
				v-0.6c1.4,0,1.9-0.5,1.9-2.1v-9.4c0-1.8-0.5-2.6-1.9-2.6V8.7c0.6,0.1,1.3,0.1,1.8,0.1c1.7,0,3.1-0.1,4.4-0.4v2.8
				c0.7-1.6,2.2-2.9,4-2.9C181.8,8.3,182.5,9.7,182.5,11z"/>
		</g>
		<g>
			<path fill="#FFFFFF" d="M197.9,21.9c0.5,0.7,0.9,1.3,1.6,1.6v0.6c-0.6,0-1.9-0.1-3.1-0.1c-1.5,0-3.1,0.1-3.9,0.1v-0.6
				c0.6,0,0.9-0.2,0.9-0.6c0-0.1-0.1-0.3-0.1-0.5l-3-5.3c-0.4-0.7-0.8-0.9-1.5-0.9v5.1c0,1.7,0.5,2.1,1.8,2.1v0.6
				c-0.7,0-2.4-0.1-3.9-0.1c-1.6,0-3.3,0.1-4.1,0.1v-0.6c1.4,0,1.9-0.5,1.9-2.1v-17c0-1.8-0.5-2.6-1.9-2.6V1.1
				c0.6,0.1,1.3,0.1,1.8,0.1c1.7,0,3.1-0.1,4.4-0.4v14.8c0.8-0.1,1.3-0.2,1.8-0.7l2.3-2.2c0.7-0.7,1-1.3,1-1.8c0-0.9-1-1.5-2.3-1.6
				V8.7c1.1,0.1,2.6,0.1,3.5,0.1c1.1,0,2.8,0,3.5-0.1v0.6c-1.3,0.3-2.5,1.1-3.7,2.3l-1.9,2L197.9,21.9z"/>
		</g>
	</g>
	<g>
		<g>
			<path fill="#D9A522" d="M122.2,12.7c0.6,0,1.1,0,1.7,0c0.6,0,1.2,0,1.8,0c0.6,0,1.1,0,1.5,0c0.4,0,0.9,0,1.2,0l0.1,0.8l-1.9,0.5
				c-0.2,0-0.3,0.2-0.3,0.3c0.1,0.3,0.1,0.7,0.1,1.3c0,1.8-0.5,3.4-1.6,4.9c0.7,1,1.4,1.7,1.9,2.1c0.3,0.2,0.6,0.4,0.9,0.5
				c0.3,0.1,0.7,0.1,1,0.1c0.3,0,0.6,0,0.9-0.1l0.1,0.8c-1,0.4-2.1,0.7-3.2,0.7c-1.7,0-3.2-0.5-4.3-1.5c-1.6,1-3.4,1.5-5.3,1.5
				c-2,0-3.8-0.5-5.2-1.5c-1.4-1-2.1-2.3-2.1-4c0-2.3,1.4-4.2,4.2-5.6c-0.9-1-1.5-1.8-1.9-2.6c-0.4-0.8-0.6-1.6-0.6-2.5
				c0-1.4,0.6-2.5,1.7-3.3c1.2-0.8,2.6-1.2,4.2-1.2c1.5,0,2.8,0.4,3.8,1.1c1,0.7,1.5,1.7,1.5,3c0,1.9-1.4,3.6-4.3,5l5.5,6.3
				c0.6-1.1,0.9-2.2,0.9-3.4c0-0.6,0-1-0.1-1.3c0-0.2-0.1-0.3-0.2-0.4s-0.2-0.1-0.4-0.2l-1.8-0.4L122.2,12.7z M114.7,14.5
				c-0.7,0.9-1,2-1,3.3c0,1.4,0.4,2.5,1.1,3.4c0.8,0.9,1.8,1.3,3.1,1.3c1.1,0,2.1-0.3,3.1-0.8L114.7,14.5z M117.4,11.8
				c1-0.9,1.5-2.2,1.5-3.8c0-0.9-0.2-1.6-0.5-2.1s-0.8-0.8-1.4-0.8c-0.6,0-1.1,0.2-1.4,0.6c-0.3,0.4-0.5,1-0.5,1.7
				c0,1.1,0.5,2.3,1.6,3.5L117.4,11.8z"/>
		</g>
	</g>
</g>
</svg>
